<?xml version="1.0" standalone="no"?><!DOCTYPE svg PUBLIC "-//W3C//DTD SVG 1.1//EN" "http://www.w3.org/Graphics/SVG/1.1/DTD/svg11.dtd"><svg t="1741708592400" class="icon" viewBox="0 0 1024 1024" version="1.1" xmlns="http://www.w3.org/2000/svg" p-id="38309" xmlns:xlink="http://www.w3.org/1999/xlink" width="200" height="200"><path d="M512 962.56C263.168 962.56 61.44 760.832 61.44 512S263.168 61.44 512 61.44s450.56 201.728 450.56 450.56-201.728 450.56-450.56 450.56z m180.85888-397.312c31.92832-29.61408 31.92832-76.88192 0-106.496L477.5936 259.13344a47.0016 47.0016 0 0 0-1.00352-0.90112c-19.456-17.01888-50.44224-16.52736-69.2224 1.10592-20.52096 19.29216-23.81824 48.82432-7.96672 71.4752l105.49248 150.58944c13.1072 18.67776 13.1072 42.55744 0 61.2352L398.9504 693.8624c-15.5648 22.26176-12.34944 51.3024 7.84384 70.26688l0.57344 0.55296 1.024 0.90112c19.31264 17.14176 50.29888 16.83456 69.2224-0.69632l215.26528-199.65952z" p-id="38310" fill="#60a5fa"></path></svg>