<?xml version="1.0" standalone="no"?><!DOCTYPE svg PUBLIC "-//W3C//DTD SVG 1.1//EN" "http://www.w3.org/Graphics/SVG/1.1/DTD/svg11.dtd"><svg t="1740502236527" class="icon" viewBox="0 0 1024 1024" version="1.1" xmlns="http://www.w3.org/2000/svg" p-id="12566" xmlns:xlink="http://www.w3.org/1999/xlink" width="200" height="200"><path d="M512 938.666667C276.693333 938.666667 85.333333 747.264 85.333333 512S276.693333 85.333333 512 85.333333c235.264 0 426.666667 191.402667 426.666667 426.666667s-191.402667 426.666667-426.666667 426.666667z" fill="#1296db" opacity=".4" p-id="12567"></path><path d="M573.568 692.053333a31.872 31.872 0 0 1-22.613333-9.301333l-148.736-148.053333a32.042667 32.042667 0 0 1 0-45.354667l148.778666-148.138667a31.957333 31.957333 0 1 1 45.141334 45.354667L470.101333 512l126.037334 125.44a32 32 0 0 1-22.613334 54.613333z" fill="#1296db" p-id="12568"></path></svg>