<?xml version="1.0" standalone="no"?><!DOCTYPE svg PUBLIC "-//W3C//DTD SVG 1.1//EN" "http://www.w3.org/Graphics/SVG/1.1/DTD/svg11.dtd"><svg t="1741425436646" class="icon" viewBox="0 0 1024 1024" version="1.1" xmlns="http://www.w3.org/2000/svg" p-id="27105" xmlns:xlink="http://www.w3.org/1999/xlink" width="200" height="200"><path d="M775.68 988.16H508.587a149.333 149.333 0 0 1-96.64-42.667L181.76 715.733a101.76 101.76 0 0 1 143.573-144v-266.24a101.76 101.76 0 1 1 203.307 0v147.414l218.027 51.626A170.667 170.667 0 0 1 878.293 671.36V886.4A101.76 101.76 0 0 1 775.68 988.16zM253.653 606.293a37.76 37.76 0 0 0-26.666 64L456.96 900.48a85.333 85.333 0 0 0 51.413 23.467H775.68a37.76 37.76 0 0 0 37.76-37.76v-215.04a106.667 106.667 0 0 0-82.56-104.534l-241.493-57.386a32 32 0 0 1-24.534-31.147V305.493a37.76 37.76 0 1 0-75.306 0V648.96a32 32 0 0 1-54.614 22.613l-54.4-54.4a37.547 37.547 0 0 0-26.88-10.88z" p-id="27106" fill="#13227a"></path><path d="M616.96 411.947A32 32 0 0 1 588.8 364.8a181.333 181.333 0 1 0-320 0 32 32 0 1 1-55.467 30.507 245.333 245.333 0 1 1 431.787 0 32 32 0 0 1-28.16 16.64z" p-id="27107" fill="#13227a"></path></svg>