<?xml version="1.0" standalone="no"?><!DOCTYPE svg PUBLIC "-//W3C//DTD SVG 1.1//EN" "http://www.w3.org/Graphics/SVG/1.1/DTD/svg11.dtd"><svg t="1773508920598" class="icon" viewBox="0 0 1024 1024" version="1.1" xmlns="http://www.w3.org/2000/svg" p-id="3917" xmlns:xlink="http://www.w3.org/1999/xlink" width="200" height="200"><path d="M163.797333 249.941333c125.44-167.082667 385.28-215.68 570.197334-100.693333 182.613333 113.493333 249.770667 331.818667 174.933333 536.618667-70.613333 193.408-256.682667 269.994667-390.784 172.714666-50.218667-36.437333-69.717333-82.133333-79.104-156.330666l-4.522667-42.112-1.92-16.981334c-5.248-39.850667-13.269333-57.685333-30.08-67.072-22.826667-12.714667-38.058667-13.013333-68.053333-1.408l-14.976 6.229334-7.637333 3.328c-43.264 18.773333-72.021333 25.386667-108.416 17.749333l-8.533334-2.005333-6.997333-2.005334c-118.997333-36.864-136.618667-198.272-24.106667-348.032z m41.984 286.549334l5.248 1.578666 5.717334 1.28c18.730667 3.712 34.730667 0.64 61.312-10.325333l25.685333-10.965333c51.285333-21.034667 84.693333-23.04 129.962667 2.133333 39.125333 21.845333 54.4 55.381333 62.165333 113.493333l2.261333 19.584 2.346667 22.698667 2.005333 18.005333c7.338667 58.069333 20.693333 89.173333 53.248 112.810667 97.066667 70.4 236.117333 13.184 293.12-142.890667 64.682667-177.152 7.424-363.264-148.650666-460.330666-156.8-97.450667-379.690667-55.722667-485.248 84.778666-88.533333 117.888-77.653333 225.28-9.173334 248.149334z m478.933334-85.077334a53.333333 53.333333 0 1 1 102.997333-27.605333 53.333333 53.333333 0 0 1-102.997333 27.605333z m21.077333 148.821334a53.333333 53.333333 0 1 1 103.04-27.605334 53.333333 53.333333 0 0 1-103.04 27.605334zM600.32 323.285333a53.333333 53.333333 0 1 1 103.04-27.605333 53.333333 53.333333 0 0 1-103.04 27.605333z m-1.194667 383.914667a53.333333 53.333333 0 1 1 102.997334-27.605333 53.333333 53.333333 0 0 1-102.997334 27.605333z m-149.205333-425.386667a53.333333 53.333333 0 1 1 103.04-27.562666 53.333333 53.333333 0 0 1-103.04 27.562666z" p-id="3918"></path></svg>