<?xml version="1.0" standalone="no"?><!DOCTYPE svg PUBLIC "-//W3C//DTD SVG 1.1//EN" "http://www.w3.org/Graphics/SVG/1.1/DTD/svg11.dtd"><svg t="1775490729696" class="icon" viewBox="0 0 1024 1024" version="1.1" xmlns="http://www.w3.org/2000/svg" p-id="23683" xmlns:xlink="http://www.w3.org/1999/xlink" width="200" height="200"><path d="M833.728 340.128l-163.904-178.144c-7.744-8.448-18.4-15.552-29.824-21.28v211.2l202.4 0.064c-2.752-4.192-5.536-8.448-8.64-11.84" fill="#636363" p-id="23684"></path><path d="M640 576h-256a32 32 0 1 1 0-64h256a32 32 0 1 1 0 64m0 160h-256a32 32 0 1 1 0-64h256a32 32 0 1 1 0 64m223.808-320h-223.744A64.128 64.128 0 0 1 576 351.872V128H223.808A64 64 0 0 0 160 192.064v639.84A64 64 0 0 0 223.744 896h576.512A64 64 0 0 0 864 831.84V417.632c0-0.544-0.16-1.12-0.192-1.664" fill="#636363" p-id="23685"></path></svg>