<?xml version="1.0" standalone="no"?><!DOCTYPE svg PUBLIC "-//W3C//DTD SVG 1.1//EN" "http://www.w3.org/Graphics/SVG/1.1/DTD/svg11.dtd"><svg t="1740837914110" class="icon" viewBox="0 0 1024 1024" version="1.1" xmlns="http://www.w3.org/2000/svg" p-id="17733" xmlns:xlink="http://www.w3.org/1999/xlink" width="200" height="200"><path d="M717.226667 426.666667a21.333333 21.333333 0 0 1 0 29.866666l-343.893334 345.173334a85.333333 85.333333 0 0 1-29.013333 19.2L159.146667 896a21.333333 21.333333 0 0 1-23.04-4.693333 21.333333 21.333333 0 0 1-8.106667-26.453334l73.386667-185.173333a85.333333 85.333333 0 0 1 19.2-29.013333l344.32-344.32a21.333333 21.333333 0 0 1 30.293333 0z m160-251.733334l-28.16-28.16A64 64 0 0 0 803.84 128h-32.426667a64 64 0 0 0-46.08 18.773333l-77.226666 78.08a21.333333 21.333333 0 0 0 0 29.866667L768 376.32a21.333333 21.333333 0 0 0 30.293333 0L877.226667 298.666667A64 64 0 0 0 896 252.586667v-32.426667a64 64 0 0 0-18.773333-45.226667z" p-id="17734" fill="#0071E3"></path></svg>