<?xml version="1.0" standalone="no"?><!DOCTYPE svg PUBLIC "-//W3C//DTD SVG 1.1//EN" "http://www.w3.org/Graphics/SVG/1.1/DTD/svg11.dtd"><svg t="1779030378525" class="icon" viewBox="0 0 1024 1024" version="1.1" xmlns="http://www.w3.org/2000/svg" p-id="2981" xmlns:xlink="http://www.w3.org/1999/xlink" width="200" height="200"><path d="M469.333333 170.666667m42.666667 0l0 0q42.666667 0 42.666667 42.666666l0 426.666667q0 42.666667-42.666667 42.666667l0 0q-42.666667 0-42.666667-42.666667l0-426.666667q0-42.666667 42.666667-42.666666Z" fill="#636363" p-id="2982"></path><path d="M810.666667 341.333333h-85.333334v85.333334h85.333334v341.333333H213.333333v-341.333333h85.333334V341.333333H213.333333a85.333333 85.333333 0 0 0-85.333333 85.333334v341.333333a85.333333 85.333333 0 0 0 85.333333 85.333333h597.333334a85.333333 85.333333 0 0 0 85.333333-85.333333v-341.333333a85.333333 85.333333 0 0 0-85.333333-85.333334zM488.106667 109.226667L356.693333 240.64A34.133333 34.133333 0 0 0 381.013333 298.666667h261.973334a34.133333 34.133333 0 0 0 24.32-58.026667l-131.413334-131.413333a33.706667 33.706667 0 0 0-47.786666 0z" fill="#636363" p-id="2983"></path></svg>