<?xml version="1.0" standalone="no"?><!DOCTYPE svg PUBLIC "-//W3C//DTD SVG 1.1//EN" "http://www.w3.org/Graphics/SVG/1.1/DTD/svg11.dtd"><svg t="1741708303306" class="icon" viewBox="0 0 1024 1024" version="1.1" xmlns="http://www.w3.org/2000/svg" p-id="30586" xmlns:xlink="http://www.w3.org/1999/xlink" width="200" height="200"><path d="M453.315048 146.285714a73.142857 73.142857 0 0 1 71.411809 57.295238l3.535238 15.847619H828.952381a73.142857 73.142857 0 0 1 73.142857 73.142858v512a73.142857 73.142857 0 0 1-73.142857 73.142857H195.047619a73.142857 73.142857 0 0 1-73.142857-73.142857V219.428571a73.142857 73.142857 0 0 1 73.142857-73.142857h258.267429z m0 73.142857H195.047619v585.142858h633.904762V414.47619H496.688762l-43.373714-195.047619zM780.190476 658.285714v73.142857H243.809524v-73.142857h536.380952z m48.761905-365.714285H544.49981l10.849523 48.761904H828.952381v-48.761904z" p-id="30587" fill="#60a5fa"></path></svg>