<?xml version="1.0" standalone="no"?><!DOCTYPE svg PUBLIC "-//W3C//DTD SVG 1.1//EN" "http://www.w3.org/Graphics/SVG/1.1/DTD/svg11.dtd"><svg t="1740831620825" class="icon" viewBox="0 0 1024 1024" version="1.1" xmlns="http://www.w3.org/2000/svg" p-id="15038" xmlns:xlink="http://www.w3.org/1999/xlink" width="200" height="200"><path d="M512 234.666667a277.333333 277.333333 0 1 0 0 554.666666 277.333333 277.333333 0 0 0 0-554.666666zM170.666667 512a341.333333 341.333333 0 1 1 682.666666 0 341.333333 341.333333 0 0 1-682.666666 0z m277.12-81.621333l0.042666-0.341334a105.898667 105.898667 0 0 1 2.133334-10.368 110.506667 110.506667 0 0 1 10.026666-25.472c9.557333-17.237333 24.362667-31.530667 52.010667-31.530666 35.626667 0 48.298667 10.666667 53.973333 18.602666 7.253333 10.154667 10.026667 25.514667 10.026667 45.397334 0 19.882667-10.88 39.424-33.706667 48.213333-27.093333 10.453333-62.293333 36.650667-62.293333 79.786667v10.666666a32 32 0 0 0 64 0V554.666667c0-2.218667 0.768-5.205333 4.352-9.088 3.754667-4.138667 9.728-8.192 16.981333-11.008A114.645333 114.645333 0 0 0 640 426.666667c0-22.784-2.56-55.424-21.973333-82.602667C597.034667 314.624 561.706667 298.666667 512 298.666667c-57.685333 0-90.88 33.706667-107.946667 64.426666a174.336 174.336 0 0 0-19.626666 58.026667l-0.128 1.28-0.085334 0.426667v0.256L416 426.666667l-31.786667-3.541334a32 32 0 0 0 63.573334 7.253334zM512 640a42.666667 42.666667 0 1 0 0 85.333333 42.666667 42.666667 0 0 0 0-85.333333z" fill="#8A8AA3" p-id="15039"></path></svg>