<?xml version="1.0" standalone="no"?><!DOCTYPE svg PUBLIC "-//W3C//DTD SVG 1.1//EN" "http://www.w3.org/Graphics/SVG/1.1/DTD/svg11.dtd"><svg t="1741707974598" class="icon" viewBox="0 0 1024 1024" version="1.1" xmlns="http://www.w3.org/2000/svg" p-id="19689" xmlns:xlink="http://www.w3.org/1999/xlink" width="200" height="200"><path d="M661.333333 426.666667a64 64 0 1 0 0-128 64 64 0 0 0 0 128z" fill="#60a5fa" p-id="19690"></path><path d="M128 213.333333a85.333333 85.333333 0 0 1 85.333333-85.333333h597.333334a85.333333 85.333333 0 0 1 85.333333 85.333333v597.333334a85.333333 85.333333 0 0 1-85.333333 85.333333H213.333333a85.333333 85.333333 0 0 1-85.333333-85.333333V213.333333z m682.666667 0H213.333333v337.92l144-115.2a42.666667 42.666667 0 0 1 53.333334 0l183.466666 146.773334 58.368-58.325334a42.666667 42.666667 0 0 1 60.330667 0L810.666667 622.336V213.333333zM213.333333 810.666667h597.333334v-67.669334l-128-128-55.168 55.168a42.666667 42.666667 0 0 1-56.832 3.157334L384 523.946667l-170.666667 136.533333V810.666667z" fill="#60a5fa" p-id="19691"></path></svg>