<?xml version="1.0" standalone="no"?><!DOCTYPE svg PUBLIC "-//W3C//DTD SVG 1.1//EN" "http://www.w3.org/Graphics/SVG/1.1/DTD/svg11.dtd"><svg t="1775494465851" class="icon" viewBox="0 0 1024 1024" version="1.1" xmlns="http://www.w3.org/2000/svg" p-id="24854" xmlns:xlink="http://www.w3.org/1999/xlink" width="200" height="200"><path d="M354.46 0c-87.04 0-157.54 70.5-157.54 157.54v275.69H78.77c-21.661 0-39.38 17.729-39.38 39.39v236.3c0 21.662 17.719 39.39 39.38 39.39h118.15v118.15c0 87.04 70.5 157.54 157.54 157.54h472.62c87.04 0 157.54-70.5 157.54-157.54V315.08c0-41.748-38.99-81.922-107.52-149.27l-29.15-29.15-29.14-29.14C751.462 38.99 711.328 0 669.54 0H354.46z m0 78.77h287.12c28.357 7.09 27.96 42.142 27.96 76.8v120.12c0 21.662 17.719 39.39 39.38 39.39h118.16c39.385 0 78.77-0.005 78.77 39.38v512c0 43.323-35.446 78.77-78.77 78.77H354.46c-43.324 0-78.77-35.446-78.77-78.77V748.31h393.85c21.662 0 39.38-17.728 39.38-39.39v-236.3c0-21.661-17.718-39.39-39.38-39.39H275.69V157.54c0-43.323 35.446-78.77 78.77-78.77zM270.7 503.62c18.756 0 35.365 9.138 46.36 22.23l-10.35 14.57c-9.701-10.375-21.35-16.79-36.01-16.79-17.894 0-29.53 10.124-29.53 26.18 0 17.785 14.011 24.452 26.3 30.38l22.42 11.12c18.325 9.14 32.55 21.485 32.55 48.41 0 28.654-20.695 51.38-53.68 51.38-22.421 0-41.608-10.367-55.19-26.67l11.86-15.81c11.21 13.586 27.165 22.48 43.55 22.48 20.912 0 33.2-11.862 33.2-29.4 0-18.773-11.429-24.703-26.52-32.36l-22.63-11.36c-14.66-7.163-32.13-20.01-32.13-46.44 0-27.913 21.127-47.92 49.8-47.92z m164.64 0c39.668 0 67.48 35.072 67.48 93.12s-27.812 94.36-67.48 94.36c-39.668 0-67.48-36.312-67.48-94.36s27.812-93.12 67.48-93.12z m-296.5 3.21h20.05v127.95c0 31.37-12.72 56.32-43.55 56.32-20.05 0-34.28-9.877-43.55-28.65l14.23-11.86c7.114 14.574 15.954 20.51 27.38 20.51 17.031 0 25.44-11.121 25.44-38.54V506.83z m421.9 0H581l57.78 114.12 17.03 37.3h1.08c-1.294-18.032-2.8-38.537-2.8-57.31v-94.11h18.97v181.06h-20.48l-57.56-114.37-17.03-37.29h-0.87c0.862 18.28 2.37 37.54 2.37 56.56v95.1h-18.75V506.83z m-125.4 16.8c-28.458 0-47 27.906-47 73.11s18.542 74.36 47 74.36 47-29.156 47-74.36-18.542-73.11-47-73.11z" p-id="24855" fill="#636363"></path></svg>