<?xml version="1.0" standalone="no"?><!DOCTYPE svg PUBLIC "-//W3C//DTD SVG 1.1//EN" "http://www.w3.org/Graphics/SVG/1.1/DTD/svg11.dtd"><svg t="1775970172462" class="icon" viewBox="0 0 1024 1024" version="1.1" xmlns="http://www.w3.org/2000/svg" p-id="10309" xmlns:xlink="http://www.w3.org/1999/xlink" width="200" height="200"><path d="M663.49568 80H195.2c-31.81056 0-57.6 25.78944-57.6 57.6V915.20512c0 15.90272 6.44096 30.30528 16.87552 40.72448a57.42592 57.42592 0 0 0 40.72448 16.87552h633.6c31.81056 0 57.6-25.78944 57.6-57.6V302.90432l-222.90432-222.90432z" fill="" p-id="10310"></path><path d="M663.49568 51.2H195.2c-31.81056 0-57.6 25.78944-57.6 57.6V886.40512c0 15.90272 6.44096 30.30528 16.87552 40.72448a57.42592 57.42592 0 0 0 40.72448 16.87552h633.6c31.81056 0 57.6-25.78944 57.6-57.6V274.10432L663.49568 51.2z" fill="#EF4A4A" p-id="10311"></path><path d="M764.4672 152.17152l-100.6336 100.62848 222.5664 222.5664V274.10432z" fill="" p-id="10312"></path><path d="M663.49568 51.2h-7.49568v172.8c0 31.81056 25.78944 57.6 57.6 57.6h172.8v-7.49568L663.49568 51.2z" fill="#F19A9A" p-id="10313"></path><path d="M688.83456 583.296c14.07488 7.90528 12.06272 13.824 22.1184 5.91872 10.05568-7.90016-10.05568-17.77664-26.1376-23.69536-16.09216-5.92896-92.52864-15.2832-92.52864-15.2832s4.81792 6.45632 11.34592 13.06624c12.12416 6.08768 22.93248 10.07104 30.90944 13.9776 16.35328-0.28672 42.41408-0.65024 54.29248 6.016z m21.69856 21.61152c-10.05568-5.91872-47.85664-11.74016-71.9872-25.56416-1.22368-0.70656-2.60608-1.3824-4.00896-2.06336-3.03616 0.04096-5.85216 0.09728-8.05376 0.09728-7.21408 0-15.98976-7.13216-22.85568-14.07488-28.07808-14.09024-63.09376-39.74144-85.76512-103.90528 0 0-14.08-51.35872-16.08704-69.13024-2.01216-17.76128 6.03136-35.54816 10.05056-19.74272 0 0 8.04352 17.77664 4.02432 31.59552l4.02432 23.69536s14.07488-51.33824 4.0192-65.1776c0 0-37.99552-21.7088-40.00256 11.86816-2.01216 33.56672 2.10944 82.63168 6.12864 90.53696 0 0-39.9104 120.24832-92.20608 193.3312 0 0-22.1184 31.58528-32.17408 35.54816 0 0-24.14592 9.87648-8.05888-11.8528 0 0 38.2208-43.44832 46.26432-55.296 0 0-69.97504 39.50592-73.99936 49.36192-4.0192 9.88672-13.9776 29.73184 11.64288 39.50592 0 0 29.54752 2.39104 51.66592-21.30432 0 0 51.87584-63.29344 61.93152-83.04128 0 0 32.60928-11.9552 141.21472-31.70816 0 0 58.33216 27.44832 76.44672 31.3856 18.09408 3.96288 26.1376 17.77664 26.1376 17.77664s21.70368-15.90272 11.648-21.84192z m-245.38624-21.0944l42.56256-83.47136c4.02432 19.75808 43.1872 57.9072 43.1872 57.9072-16.08704 1.9712-85.74976 25.56416-85.74976 25.56416z" fill="" p-id="10314"></path><path d="M688.83456 554.496c14.07488 7.90528 12.06272 13.824 22.1184 5.91872 10.05568-7.8848-10.05568-17.76128-26.1376-23.69536-16.09216-5.92896-92.52864-15.2832-92.52864-15.2832s4.81792 6.45632 11.34592 13.06624c12.12416 6.08768 22.93248 10.07104 30.90944 13.9776 16.35328-0.28672 42.41408-0.65024 54.29248 6.016z m21.69856 21.61152c-10.05568-5.91872-47.85664-11.74016-71.9872-25.56416-1.22368-0.70656-2.60608-1.3824-4.00896-2.06336-3.03616 0.04096-5.85216 0.09728-8.05376 0.09728-7.21408 0-15.98976-7.13216-22.85568-14.07488-28.07808-14.09024-63.09376-39.74144-85.76512-103.90528 0 0-14.08-51.35872-16.08704-69.13024-2.01216-17.76128 6.03136-35.54816 10.05056-19.74272 0 0 8.04352 17.77664 4.02432 31.59552l4.02432 23.69536s14.07488-51.33824 4.0192-65.1776c0 0-37.99552-21.7088-40.00256 11.86816-2.01216 33.56672 2.10944 82.63168 6.12864 90.53696 0 0-39.9104 120.24832-92.20608 193.3312 0 0-22.1184 31.58528-32.17408 35.54816 0 0-24.14592 9.87648-8.05888-11.8528 0 0 38.2208-43.44832 46.26432-55.296 0 0-69.97504 39.50592-73.99936 49.36192-4.0192 9.88672-13.9776 29.73184 11.64288 39.50592 0 0 29.54752 2.39104 51.66592-21.30432 0 0 51.87584-63.29344 61.93152-83.04128 0 0 32.60928-11.9552 141.21472-31.70816 0 0 58.33216 27.44832 76.44672 31.3856 18.09408 3.96288 26.1376 17.77664 26.1376 17.77664s21.70368-15.90272 11.648-21.84192z m-245.38624-21.0944l42.56256-83.47136c4.02432 19.75808 43.1872 57.9072 43.1872 57.9072-16.08704 1.9712-85.74976 25.56416-85.74976 25.56416z" fill="#FFFFFF" p-id="10315"></path></svg>