<?xml version="1.0" standalone="no"?><!DOCTYPE svg PUBLIC "-//W3C//DTD SVG 1.1//EN" "http://www.w3.org/Graphics/SVG/1.1/DTD/svg11.dtd"><svg t="1742305490844" class="icon" viewBox="0 0 1024 1024" version="1.1" xmlns="http://www.w3.org/2000/svg" p-id="5010" xmlns:xlink="http://www.w3.org/1999/xlink" width="200" height="200"><path d="M516.266667 170.666667c187.733333 0 341.333333 153.6 341.333333 341.333333s-153.6 341.333333-341.333333 341.333333-341.333333-153.6-341.333334-341.333333 153.6-341.333333 341.333334-341.333333m0-85.333334c-234.666667 0-426.666667 192-426.666667 426.666667s192 426.666667 426.666667 426.666667 426.666667-192 426.666666-426.666667-192-426.666667-426.666666-426.666667z" p-id="5011" fill="#60A5FA"></path><path d="M384 665.6V358.4c0-34.133333 34.133333-55.466667 64-38.4l264.533333 153.6c29.866667 17.066667 29.866667 55.466667 0 72.533333l-264.533333 153.6c-29.866667 21.333333-64 0-64-34.133333z m85.333333-230.4v157.866667l136.533334-81.066667-136.533334-76.8z" p-id="5012" fill="#60A5FA"></path></svg>