<?xml version="1.0" standalone="no"?><!DOCTYPE svg PUBLIC "-//W3C//DTD SVG 1.1//EN" "http://www.w3.org/Graphics/SVG/1.1/DTD/svg11.dtd"><svg t="1779032347138" class="icon" viewBox="0 0 1024 1024" version="1.1" xmlns="http://www.w3.org/2000/svg" p-id="1696" xmlns:xlink="http://www.w3.org/1999/xlink" width="200" height="200"><path d="M256 426.666667c-93.866667 0-170.666667-76.8-170.666667-170.666667s76.8-170.666667 170.666667-170.666667 170.666667 76.8 170.666667 170.666667-76.8 170.666667-170.666667 170.666667z m0-256c-46.933333 0-85.333333 38.4-85.333333 85.333333s38.4 85.333333 85.333333 85.333333 85.333333-38.4 85.333333-85.333333-38.4-85.333333-85.333333-85.333333zM256 938.666667c-93.866667 0-170.666667-76.8-170.666667-170.666667s76.8-170.666667 170.666667-170.666667 170.666667 76.8 170.666667 170.666667-76.8 170.666667-170.666667 170.666667z m0-256c-46.933333 0-85.333333 38.4-85.333333 85.333333s38.4 85.333333 85.333333 85.333333 85.333333-38.4 85.333333-85.333333-38.4-85.333333-85.333333-85.333333z" p-id="1697" fill="#636363"></path><path d="M345.6 721.066667c-12.8 0-21.333333-4.266667-29.866667-12.8-17.066667-17.066667-17.066667-42.666667 0-59.733334L823.466667 140.8c17.066667-17.066667 42.666667-17.066667 59.733333 0s17.066667 42.666667 0 59.733333L375.466667 708.266667c-8.533333 8.533333-17.066667 12.8-29.866667 12.8zM853.333333 896c-12.8 0-21.333333-4.266667-29.866666-12.8l-234.666667-234.666667c-17.066667-17.066667-17.066667-42.666667 0-59.733333 17.066667-17.066667 42.666667-17.066667 59.733333 0l234.666667 234.666667c17.066667 17.066667 17.066667 42.666667 0 59.733333-8.533333 8.533333-17.066667 12.8-29.866667 12.8z" p-id="1698" fill="#636363"></path><path d="M512 554.666667c-12.8 0-21.333333-4.266667-29.866667-12.8L315.733333 375.466667c-17.066667-17.066667-17.066667-42.666667 0-59.733334s42.666667-17.066667 59.733334 0l166.4 166.4c17.066667 17.066667 17.066667 42.666667 0 59.733334-8.533333 8.533333-17.066667 12.8-29.866667 12.8z" p-id="1699" fill="#636363"></path></svg>