<?xml version="1.0" standalone="no"?><!DOCTYPE svg PUBLIC "-//W3C//DTD SVG 1.1//EN" "http://www.w3.org/Graphics/SVG/1.1/DTD/svg11.dtd"><svg t="1779383617044" class="icon" viewBox="0 0 1024 1024" version="1.1" xmlns="http://www.w3.org/2000/svg" p-id="14818" xmlns:xlink="http://www.w3.org/1999/xlink" width="200" height="200"><path d="M256 448a192 192 0 1 1 192-192 192.448 192.448 0 0 1-192 192z m0-320a128 128 0 1 0 0 256h128V256a128 128 0 0 0-128-128z" p-id="14819" fill="#636363"></path><path d="M256 960a192 192 0 1 1 192-192 192.448 192.448 0 0 1-192 192z m0-320a128 128 0 1 0 128 128v-128z" p-id="14820" fill="#636363"></path><path d="M768 448a192 192 0 1 1 192-192 192.448 192.448 0 0 1-192 192z m0-320a128 128 0 0 0-128 128v128h128a128 128 0 0 0 0-256z" p-id="14821" fill="#636363"></path><path d="M768 960a192 192 0 1 1 192-192 192.448 192.448 0 0 1-192 192z m-128-320v128a128 128 0 1 0 128-128z" p-id="14822" fill="#636363"></path><path d="M384 256h64v512H384z" p-id="14823" fill="#636363"></path><path d="M576 256h64v512H576z" p-id="14824" fill="#636363"></path><path d="M768 384v64H256V384z" p-id="14825" fill="#636363"></path><path d="M768 576v64H256V576z" p-id="14826" fill="#636363"></path></svg>