<?xml version="1.0" standalone="no"?><!DOCTYPE svg PUBLIC "-//W3C//DTD SVG 1.1//EN" "http://www.w3.org/Graphics/SVG/1.1/DTD/svg11.dtd"><svg t="1755968235736" class="icon" viewBox="0 0 1088 1024" version="1.1" xmlns="http://www.w3.org/2000/svg" p-id="15649" xmlns:xlink="http://www.w3.org/1999/xlink" width="212.5" height="200"><path d="M854.592 160c58.24 0 105.408 47.168 105.408 105.408v493.184c0 58.24-47.168 105.408-105.408 105.408H233.408C175.168 864 128 816.832 128 758.592V265.408c0-58.24 47.168-105.408 105.408-105.408h621.184z m-378.368 64H271.04C227.392 224 192 259.392 192 303.04v417.92c0 43.648 35.392 79.04 79.04 79.04h205.184v-576z m340.736 0H535.68v576h281.216c43.648 0 79.04-35.392 79.04-79.04v-417.92c0-43.648-35.392-79.04-79.04-79.04zM423.552 443.456v54.848h-158.08v-54.848h158.08z m0-146.304V352h-158.08v-54.848h158.08z" p-id="15650"></path></svg>