<?xml version="1.0" standalone="no"?><!DOCTYPE svg PUBLIC "-//W3C//DTD SVG 1.1//EN" "http://www.w3.org/Graphics/SVG/1.1/DTD/svg11.dtd"><svg t="1741919255859" class="icon" viewBox="0 0 1024 1024" version="1.1" xmlns="http://www.w3.org/2000/svg" p-id="6048" xmlns:xlink="http://www.w3.org/1999/xlink" width="200" height="200"><path d="M513.137778 864.711111l-250.311111 130.844445c-28.444444 17.066667-62.577778 5.688889-79.644445-22.755556-5.688889-11.377778-5.688889-22.755556-5.688889-34.133333l51.2-278.755556-199.111111-193.422222c-22.755556-22.755556-22.755556-56.888889 0-79.644445 5.688889-11.377778 17.066667-17.066667 28.444445-17.066666l278.755555-39.822222 125.155556-250.311112c11.377778-28.444444 45.511111-39.822222 73.955555-28.444444 11.377778 5.688889 22.755556 17.066667 28.444445 28.444444l125.155555 250.311112 278.755556 39.822222c28.444444 5.688889 51.2 34.133333 45.511111 62.577778 0 11.377778-5.688889 22.755556-17.066667 34.133333l-199.111111 193.422222 45.511111 278.755556c5.688889 28.444444-17.066667 62.577778-45.511111 68.266666-11.377778 0-22.755556 0-34.133333-5.688889l-250.311111-136.533333z" fill="#FEBA60" p-id="6049"></path></svg>