<?xml version="1.0" standalone="no"?><!DOCTYPE svg PUBLIC "-//W3C//DTD SVG 1.1//EN" "http://www.w3.org/Graphics/SVG/1.1/DTD/svg11.dtd"><svg t="1742566240029" class="icon" viewBox="0 0 1024 1024" version="1.1" xmlns="http://www.w3.org/2000/svg" p-id="10962" xmlns:xlink="http://www.w3.org/1999/xlink" width="200" height="200"><path d="M967.111111 428.942222c13.653333-12.515556 5.688889-35.271111-12.515555-38.684444l-279.893334-40.96c-6.826667-1.137778-13.653333-5.688889-17.066666-12.515556l-125.155556-253.724444c-7.964444-17.066667-31.857778-17.066667-40.96 0l-125.155556 253.724444c-3.413333 6.826667-9.102222 11.377778-17.066666 12.515556L69.404444 391.395556c-18.204444 2.275556-26.168889 25.031111-12.515555 38.684444l202.524444 197.973333c5.688889 5.688889 7.964444 12.515556 6.826667 20.48l-47.786667 279.893334c-3.413333 18.204444 15.928889 32.995556 32.995556 23.893333l250.311111-131.982222c6.826667-3.413333 14.791111-3.413333 20.48 0l250.311111 131.982222c17.066667 9.102222 36.408889-5.688889 32.995556-23.893333L757.76 648.533333c-1.137778-6.826667 1.137778-14.791111 6.826667-20.48L967.111111 428.942222z" p-id="10963" fill="#09090b"></path></svg>