<?xml version="1.0" standalone="no"?><!DOCTYPE svg PUBLIC "-//W3C//DTD SVG 1.1//EN" "http://www.w3.org/Graphics/SVG/1.1/DTD/svg11.dtd"><svg t="1741448209713" class="icon" viewBox="0 0 1024 1024" version="1.1" xmlns="http://www.w3.org/2000/svg" p-id="31990" xmlns:xlink="http://www.w3.org/1999/xlink" width="200" height="200"><path d="M896 234.666667H725.333333v-42.666667c0-70.72-57.28-128-128-128H426.666667c-70.72 0-128 57.28-128 128v42.666667H128a42.666667 42.666667 0 0 0 0 85.333333h42.666667v512c0 70.72 57.28 128 128 128h426.666666c70.72 0 128-57.28 128-128V320h42.666667a42.666667 42.666667 0 0 0 0-85.333333z m-512-42.666667c0-23.573333 19.093333-42.666667 42.666667-42.666667h170.666666c23.573333 0 42.666667 19.093333 42.666667 42.666667v42.666667H384v-42.666667z m384 640c0 23.573333-19.093333 42.666667-42.666667 42.666667H298.666667c-23.573333 0-42.666667-19.093333-42.666667-42.666667V320h512v512z" p-id="31991" fill="#60A5FA"></path></svg>