<?xml version="1.0" standalone="no"?><!DOCTYPE svg PUBLIC "-//W3C//DTD SVG 1.1//EN" "http://www.w3.org/Graphics/SVG/1.1/DTD/svg11.dtd"><svg t="1741706159152" class="icon" viewBox="0 0 1024 1024" version="1.1" xmlns="http://www.w3.org/2000/svg" p-id="9546" xmlns:xlink="http://www.w3.org/1999/xlink" width="200" height="200"><path d="M426.65984 42.65984l170.65984 0q53.00224 0 90.50112 37.49888t37.49888 90.50112l0 42.65984 170.65984 0q17.67424 0 30.16704 12.4928t12.4928 30.16704-12.4928 30.16704-30.16704 12.4928l-42.65984 0 0 512q0 53.00224-37.49888 90.50112t-90.50112 37.49888l-426.65984 0q-53.00224 0-90.50112-37.49888t-37.49888-90.50112l0-512-42.65984 0q-17.67424 0-30.16704-12.4928t-12.4928-30.16704 12.4928-30.16704 30.16704-12.4928l170.65984 0 0-42.65984q0-53.00224 37.49888-90.50112t90.50112-37.49888zM768 810.65984l0-512-512 0 0 512q0 17.67424 12.4928 30.16704t30.16704 12.4928l426.65984 0q17.67424 0 30.16704-12.4928t12.4928-30.16704zM597.34016 128l-170.65984 0q-17.67424 0-30.16704 12.4928t-12.4928 30.16704l0 42.65984 256 0 0-42.65984q0-17.67424-12.4928-30.16704t-30.16704-12.4928z" fill="#34495e" p-id="9547"></path></svg>