<?xml version="1.0" standalone="no"?><!DOCTYPE svg PUBLIC "-//W3C//DTD SVG 1.1//EN" "http://www.w3.org/Graphics/SVG/1.1/DTD/svg11.dtd"><svg t="1782618291197" class="icon" viewBox="0 0 1024 1024" version="1.1" xmlns="http://www.w3.org/2000/svg" p-id="9744" xmlns:xlink="http://www.w3.org/1999/xlink" width="200" height="200"><path d="M348.16 409.6h409.6a81.92 81.92 0 0 1 81.92 81.92v225.28c0 135.72096-110.03904 245.76-245.76 245.76h-163.84c-135.72096 0-245.76-110.03904-245.76-245.76V491.52a81.92 81.92 0 0 1 81.92-81.92v-102.4c0-135.72096 110.03904-245.76 245.76-245.76s245.76 110.03904 245.76 245.76a40.96 40.96 0 1 1-81.92 0 163.84 163.84 0 1 0-327.68 0v102.4z m122.88 348.16a40.96 40.96 0 1 0 81.92 0v-51.87584a40.96 40.96 0 0 1 14.19264-30.98624 81.92 81.92 0 1 0-113.07008-2.56c0.79872 0.79872 1.72032 1.6384 2.7648 2.56A40.96 40.96 0 0 1 471.04 705.88416V757.76z" p-id="9745" fill="#636363"></path></svg>