<?xml version="1.0" standalone="no"?><!DOCTYPE svg PUBLIC "-//W3C//DTD SVG 1.1//EN" "http://www.w3.org/Graphics/SVG/1.1/DTD/svg11.dtd"><svg t="1741708048454" class="icon" viewBox="0 0 1024 1024" version="1.1" xmlns="http://www.w3.org/2000/svg" p-id="21907" xmlns:xlink="http://www.w3.org/1999/xlink" width="200" height="200"><path d="M682.666667 195.047619a73.142857 73.142857 0 0 1 73.142857 73.142857v102.4l59.904-35.937524A73.142857 73.142857 0 0 1 926.47619 397.409524V626.590476a73.142857 73.142857 0 0 1-110.762666 62.732191L755.809524 653.409524V755.809524a73.142857 73.142857 0 0 1-73.142857 73.142857H170.666667a73.142857 73.142857 0 0 1-73.142857-73.142857V268.190476a73.142857 73.142857 0 0 1 73.142857-73.142857h512z m0 73.142857H170.666667v487.619048h512V268.190476z m-268.190477 105.886476L552.399238 512l-51.712 51.712L414.47619 649.923048l-51.712-51.712 86.186667-86.235429-86.186667-86.186667L414.47619 374.101333z m438.857143 23.308191l-97.523809 58.489905v112.225523l97.523809 58.514286V397.409524z" p-id="21908" fill="#60a5fa"></path></svg>