<?xml version="1.0" standalone="no"?><!DOCTYPE svg PUBLIC "-//W3C//DTD SVG 1.1//EN" "http://www.w3.org/Graphics/SVG/1.1/DTD/svg11.dtd"><svg t="1756052972649" class="icon" viewBox="0 0 1024 1024" version="1.1" xmlns="http://www.w3.org/2000/svg" p-id="6076" xmlns:xlink="http://www.w3.org/1999/xlink" width="200" height="200"><path d="M279.45 270.901h-64.977v-64.977h64.977v-64.977h64.977v64.977h64.977v64.977h-64.977v64.977H279.45v-64.977z m512.977 383.023h64.977v64.977h-64.977v64.977H727.45v-64.977h-61.557v-64.977h61.557v-61.557h64.977v61.557zM960 140.947v64.977h-61.557v64.977h-64.977v-64.977h-64.977v-64.977h64.977V79.389h64.977v61.557H960zM706.931 298.26c18.239 20.519 27.359 43.888 27.359 70.107s-9.12 48.448-27.359 66.687L228.153 913.832c-18.239 20.519-41.038 30.779-68.397 30.779s-50.158-9.69-68.397-29.069S64 873.364 64 847.145s9.12-48.448 27.359-66.687L570.137 298.26c20.519-18.239 43.888-27.359 70.107-27.359s48.448 9.119 66.687 27.359zM597.496 455.573l-47.878-44.458-413.801 413.801c-6.84 6.84-10.26 14.249-10.26 22.229 0 7.98 3.42 15.389 10.26 22.229s14.819 10.26 23.939 10.26 15.959-3.42 20.519-10.26l417.221-413.801z m64.977-64.978c6.84-6.84 10.26-14.819 10.26-23.939s-3.42-16.529-10.26-22.229c-6.84-5.7-14.819-8.55-23.939-8.55s-15.959 2.28-20.519 6.84l-20.519 20.519 44.458 47.878 20.519-20.519z" p-id="6077" fill="#34495e"></path></svg>