<?xml version="1.0" standalone="no"?><!DOCTYPE svg PUBLIC "-//W3C//DTD SVG 1.1//EN" "http://www.w3.org/Graphics/SVG/1.1/DTD/svg11.dtd"><svg t="1741708572959" class="icon" viewBox="0 0 1024 1024" version="1.1" xmlns="http://www.w3.org/2000/svg" p-id="37061" xmlns:xlink="http://www.w3.org/1999/xlink" width="200" height="200"><path d="M512 962.56C263.168 962.56 61.44 760.832 61.44 512S263.168 61.44 512 61.44s450.56 201.728 450.56 450.56-201.728 450.56-450.56 450.56z m-180.85888-397.312l215.28576 199.63904c18.90304 17.53088 49.88928 17.83808 69.2224 0.69632a46.8992 46.8992 0 0 0 1.00352-0.90112l0.57344-0.55296c20.19328-18.96448 23.42912-48.00512 7.84384-70.26688l-105.94304-151.2448a52.65408 52.65408 0 0 1 0-61.2352l105.472-150.60992c15.872-22.6304 12.57472-52.16256-7.94624-71.45472-18.78016-17.63328-49.7664-18.1248-69.2224-1.10592l-1.024 0.90112-215.26528 199.65952c-31.92832 29.5936-31.92832 76.86144 0 106.45504z" p-id="37062" fill="#60a5fa"></path></svg>