<?xml version="1.0" standalone="no"?><!DOCTYPE svg PUBLIC "-//W3C//DTD SVG 1.1//EN" "http://www.w3.org/Graphics/SVG/1.1/DTD/svg11.dtd"><svg t="1743519836609" class="icon" viewBox="0 0 1024 1024" version="1.1" xmlns="http://www.w3.org/2000/svg" p-id="10282" xmlns:xlink="http://www.w3.org/1999/xlink" width="200" height="200"><path d="M459.52 928a128 128 0 0 1-111.04-64 984.32 984.32 0 0 0-204.8-251.84 128 128 0 0 1 160-199.68A1062.08 1062.08 0 0 1 436.16 544 2407.04 2407.04 0 0 1 700.8 143.04a128 128 0 1 1 198.4 161.92 2088.96 2088.96 0 0 0-320 538.56A128 128 0 0 1 470.4 928z" fill="#0077ed" p-id="10283"></path></svg>