<?xml version="1.0" standalone="no"?><!DOCTYPE svg PUBLIC "-//W3C//DTD SVG 1.1//EN" "http://www.w3.org/Graphics/SVG/1.1/DTD/svg11.dtd"><svg t="1743517383888" class="icon" viewBox="0 0 1024 1024" version="1.1" xmlns="http://www.w3.org/2000/svg" p-id="9307" xmlns:xlink="http://www.w3.org/1999/xlink" width="200" height="200"><path d="M512.00082398 512.00082398m-421.87499999 0a421.87499999 421.87499999 0 1 0 843.74999999 0 421.87499999 421.87499999 0 1 0-843.74999999 0Z" fill="#27d294" p-id="9308"></path><path d="M451.47082519 604.54058838L694.62573241 347.87249756c15.24353028-16.06750489 40.62194825-16.7266846 56.68945314-1.48315429s16.7266846 40.62194825 1.48315427 56.68945311L484.34741211 686.52606198c-15.24353028 16.06750489-40.62194825 16.80908203-56.68945313 1.56555181-1.15356445-1.071167-2.22473147-2.22473147-3.21350099-3.46069337L273.98669433 504.01568602c-14.17236327-17.05627442-11.86523437-42.26989748 5.1086426-56.52465818 17.05627442-14.17236327 42.26989748-11.86523437 56.5246582 5.10864257l127.22167968 152.68249513c-2.80151367-0.57678223-5.60302733-0.90637209-8.40454102-0.90637208l-2.9663086 0.16479492z" fill="#FFFFFF" p-id="9309"></path></svg>