<?xml version="1.0" standalone="no"?><!DOCTYPE svg PUBLIC "-//W3C//DTD SVG 1.1//EN" "http://www.w3.org/Graphics/SVG/1.1/DTD/svg11.dtd"><svg t="1741706118111" class="icon" viewBox="0 0 1024 1024" version="1.1" xmlns="http://www.w3.org/2000/svg" p-id="8407" xmlns:xlink="http://www.w3.org/1999/xlink" width="200" height="200"><path d="M628.821333 197.717333a92.373333 92.373333 0 0 1 130.56 0L826.325333 264.533333a92.416 92.416 0 0 1 0 130.602667L395.221333 826.282667A92.373333 92.373333 0 0 1 329.898667 853.333333h-128.426667A30.805333 30.805333 0 0 1 170.666667 822.528v-128.426667c0-24.490667 9.728-48 27.050666-65.322666L628.821333 197.717333z m87.04 43.52a30.805333 30.805333 0 0 0-43.52 0L614.485333 299.093333l110.421334 110.421334 57.856-57.856a30.805333 30.805333 0 0 0 0-43.52l-66.901334-66.901334z m-34.517333 211.797334l-110.378667-110.378667-329.685333 329.642667a30.762667 30.762667 0 0 0-9.045333 21.76v97.706666h97.664a30.762667 30.762667 0 0 0 21.76-9.045333l329.685333-329.685333z" fill="#34495e" p-id="8408"></path></svg>