<?xml version="1.0" standalone="no"?><!DOCTYPE svg PUBLIC "-//W3C//DTD SVG 1.1//EN" "http://www.w3.org/Graphics/SVG/1.1/DTD/svg11.dtd"><svg t="1742657145847" class="icon" viewBox="0 0 1025 1024" version="1.1" xmlns="http://www.w3.org/2000/svg" p-id="5754" data-spm-anchor-id="a313x.search_index.0.i2.67293a81XYIPo1" xmlns:xlink="http://www.w3.org/1999/xlink" width="200.1953125" height="200"><path d="M978.817649 939.233112H522.995705l476.613823-476.613823c12.795002-12.795002 20.791878-33.58688 20.791878-55.978133s-7.996876-38.385006-20.791878-55.978134L673.336978 22.791097c-30.38813-30.38813-76.770012-30.38813-107.158142 0L84.766888 504.203046c-110.356892 110.356892-110.356892 294.285045 0 404.641936l30.38813 30.38813c55.978134 55.978134 127.95002 84.766888 204.720031 84.766888h662.141351c25.590004 0 43.183132-17.593128 43.183131-43.183132s-20.791878-41.583756-46.381882-41.583756z m-361.458805-847.668879l315.076923 315.076923-366.256931 366.256931-315.076923-315.076923L617.358844 91.564233zM143.943772 849.668098c-76.770012-76.770012-76.770012-204.720031 0-284.688793l46.381882-46.381882L507.001952 832.074971l-46.381882 46.381882c-38.385006 38.385006-89.565014 59.176884-140.745021 59.176884-55.978134 0-107.158141-20.791878-145.543147-59.176884L143.943772 849.668098z" p-id="5755" fill="#515151"></path></svg>