<?xml version="1.0" standalone="no"?><!DOCTYPE svg PUBLIC "-//W3C//DTD SVG 1.1//EN" "http://www.w3.org/Graphics/SVG/1.1/DTD/svg11.dtd"><svg t="1741707242698" class="icon" viewBox="0 0 1024 1024" version="1.1" xmlns="http://www.w3.org/2000/svg" p-id="14971" xmlns:xlink="http://www.w3.org/1999/xlink" width="200" height="200"><path d="M863.126069 354.551172c-6.285241-8.651034-19.632552-9.780966-29.837241-1.871448-3.531034 2.754207-5.049379 4.378483-8.474483 8.15669l-0.247173 0.388414c-56.637793 69.949793-336.825379 347.524414-628.347586 0.388413-0.105931-0.141241-0.105931-0.282483-0.247172-0.388413-0.353103-0.635586-0.847448-1.129931-1.271173-1.659587-7.909517-10.169379-21.46869-12.817655-30.190344-6.038069-8.403862 6.673655-9.145379 19.879724-1.871449 29.978483v0.105931c0.247172 0.247172 0.247172 0.388414 0.459035 0.635586v0.141242a796.742621 796.742621 0 0 0 100.069517 95.655724l-78.000552 63.699862a17.337379 17.337379 0 0 0 21.857104 26.941793l83.226482-67.831172c0.635586-0.529655 1.094621-1.024 1.624276-1.518345 40.783448 28.354207 79.942621 47.457103 117.477518 59.286069l-23.693242 86.369103a17.549241 17.549241 0 0 0 12.21738 21.398069 17.513931 17.513931 0 0 0 21.398068-12.217379l23.799173-86.828138a315.603862 315.603862 0 0 0 158.190345-8.15669c0.141241 0.105931 0.141241 0.353103 0.141241 0.494345l44.844138 104.483311a17.37269 17.37269 0 0 0 31.955862-13.629794l-44.208552-103.070896c40.712828-16.772414 77.188414-39.936 109.285518-64.229517a20.833103 20.833103 0 0 0 2.648275 3.778207l59.674483 62.817103a17.408 17.408 0 0 0 24.50538 0.635586 17.44331 17.44331 0 0 0 0.635586-24.540689l-59.639173-62.817104-1.129931-1.129931c37.888-31.70869 67.937103-62.923034 89.476414-83.085241a18.820414 18.820414 0 0 0 2.507035-3.142621 15.183448 15.183448 0 0 0 1.165241-1.765517c4.201931-7.344552 4.413793-15.536552 0-21.43338z" fill="#333333" p-id="14972"></path></svg>