<?xml version="1.0" standalone="no"?><!DOCTYPE svg PUBLIC "-//W3C//DTD SVG 1.1//EN" "http://www.w3.org/Graphics/SVG/1.1/DTD/svg11.dtd"><svg t="1741707398148" class="icon" viewBox="0 0 1024 1024" version="1.1" xmlns="http://www.w3.org/2000/svg" p-id="17367" xmlns:xlink="http://www.w3.org/1999/xlink" width="200" height="200"><path d="M793.6 311.466667C716.8 234.666667 614.4 194.133333 512 194.133333s-202.666667 38.4-281.6 117.333334L29.866667 512l200.533333 200.533333c76.8 76.8 179.2 117.333333 281.6 117.333334s202.666667-38.4 281.6-117.333334l200.533333-200.533333-200.533333-200.533333z m-59.733333 341.333333c-59.733333 59.733333-136.533333 91.733333-221.866667 91.733333s-162.133333-32-221.866667-91.733333L149.333333 512l140.8-140.8c59.733333-59.733333 136.533333-91.733333 221.866667-91.733333 83.2 0 162.133333 32 221.866667 91.733333L874.666667 512l-140.8 140.8z" p-id="17368" fill="#333333"></path><path d="M507.733333 345.6c-93.866667 0-170.666667 76.8-170.666666 170.666667s76.8 170.666667 170.666666 170.666666 170.666667-76.8 170.666667-170.666666-76.8-170.666667-170.666667-170.666667z m0 256c-46.933333 0-85.333333-38.4-85.333333-85.333333s38.4-85.333333 85.333333-85.333334 85.333333 38.4 85.333334 85.333334-38.4 85.333333-85.333334 85.333333z" p-id="17369" fill="#333333"></path></svg>