<?xml version="1.0" standalone="no"?><!DOCTYPE svg PUBLIC "-//W3C//DTD SVG 1.1//EN" "http://www.w3.org/Graphics/SVG/1.1/DTD/svg11.dtd"><svg t="1741707498256" class="icon" viewBox="0 0 1024 1024" version="1.1" xmlns="http://www.w3.org/2000/svg" p-id="18592" xmlns:xlink="http://www.w3.org/1999/xlink" width="200" height="200"><path d="M512 106.666667A405.333333 405.333333 0 1 1 106.666667 512 405.333333 405.333333 0 0 1 512 106.666667m0-64a469.333333 469.333333 0 1 0 469.333333 469.333333A469.333333 469.333333 0 0 0 512 42.666667z" p-id="18593" fill="#333333"></path><path d="M513.066667 312.106667m-42.666667 0a42.666667 42.666667 0 1 0 85.333333 0 42.666667 42.666667 0 1 0-85.333333 0Z" p-id="18594" fill="#333333"></path><path d="M443.093333 449.706667l1.066667 20.053333c18.56-11.52 52.053333-34.986667 46.08 3.626667-5.12 32.213333-46.08 219.52-11.52 259.2s91.733333 0 102.186667-9.813334l-4.906667-14.293333s-20.053333 18.346667-36.48 8.533333c-26.24-15.36 14.293333-221.226667 19.626667-256 3.413333-16.64-12.586667-90.453333-116.053334-11.306666z" p-id="18595" fill="#333333"></path></svg>