<?xml version="1.0" standalone="no"?><!DOCTYPE svg PUBLIC "-//W3C//DTD SVG 1.1//EN" "http://www.w3.org/Graphics/SVG/1.1/DTD/svg11.dtd"><svg t="1742660916177" class="icon" viewBox="0 0 1024 1024" version="1.1" xmlns="http://www.w3.org/2000/svg" p-id="3235" xmlns:xlink="http://www.w3.org/1999/xlink" width="200" height="200"><path d="M287.8976 79.616c-42.3936 25.6-68.7616 117.9648-59.1872 205.568l3.584 34.816-19.968 19.968c-64.8192 64-81.2032 163.2256-40.448 243.2l10.8544 21.248-10.0352 24.7808c-25.9584 65.2288-23.9616 144.0256 4.4032 200.8064l11.6224 22.784-7.168 14.848c-16.4352 33.5872-24.4224 107.52-14.848 141.1584l3.9936 15.2064h60.416l-3.1744-13.2096c-2.048-6.8096-3.584-30.7712-3.584-52.7872 0-37.9904 0.768-41.6256 15.1552-71.5776 7.9872-17.2032 14.848-34.4064 14.848-38.0416 0-3.584-5.632-15.5648-12.8-26.7776-35.6352-55.6032-36.4544-123.5968-2.816-190.4128 14.7968-29.5936 14.336-38.8096-2.048-58.7776-22.3744-26.4192-33.1776-69.2224-26.368-104.448 9.5744-50.3808 40.3968-92.7744 81.9712-112.384 20.0192-9.5744 29.184-11.5712 54.784-11.5712h31.232l7.9872-16.0256c18.432-36.352 50.432-61.5936 93.5936-73.984 55.6032-16.384 124.416 14.7968 154.8288 70.4l9.5744 17.6128 34.048 1.9968c57.9584 3.9936 93.184 27.1872 118.3744 77.9776 25.6 52.0192 22.4256 107.2128-8.3968 147.6096-17.2032 22.4256-17.2032 32-2.4064 61.5936 33.5872 66.816 32.768 134.8096-2.816 190.4128-7.168 11.2128-12.8 23.1936-12.8 26.7776s6.8096 20.8384 14.848 37.9904c14.336 30.0032 15.1552 33.6384 15.1552 71.6288 0 22.016-1.5872 45.9776-3.584 52.7872l-3.2256 13.2096h60.416l3.9936-14.848c9.6256-33.9456 1.6384-107.9296-14.7968-141.568l-7.168-14.7968 11.5712-22.784c28.416-56.832 30.4128-135.5776 3.9936-201.6256l-9.984-25.1904 10.752-22.016c24.064-49.5616 27.2384-108.7488 8.0384-164.7616-10.752-32-25.1904-54.784-50.7904-79.2064l-17.2032-17.2032 3.584-34.816c7.2192-65.9968-8.7552-148.3776-35.584-183.6032-21.1968-27.9552-49.6128-36.352-79.2064-23.9616-27.1872 11.1616-50.7904 51.5584-61.952 106.3936-5.2224 26.0096-8.0384 31.5904-12.8 29.5936-34.048-15.616-60.416-21.6064-94.8224-21.6064-35.2256 0-53.248 4.4032-93.184 21.6064-4.8128 1.9968-7.68-3.584-12.8-29.5936-11.264-54.784-34.816-95.232-62.0544-106.3936-18.3808-8.0384-41.1648-6.8096-55.6032 1.9968z m45.6192 73.5744c16.0256 32.768 27.1872 110.7968 17.6128 125.2352-1.5872 2.3552-13.6192 5.5808-26.8288 7.168-13.1584 1.5872-27.136 3.584-30.7712 4.8128-6.4 1.9968-7.168-1.5872-7.168-37.2224 0-21.6064 2.7648-50.3808 5.9392-64.4096 7.2192-29.952 20.8384-57.9584 27.2384-55.552 2.4064 0.768 8.8064 9.984 13.9776 19.968z m384.8192-5.1712c12.8 24.7808 19.968 62.7712 19.968 105.5744 0 30.8224-1.1776 38.8096-5.1712 37.2224-3.2256-1.2288-17.6128-3.2256-32-4.8128-32-3.584-33.2288-5.632-29.5936-54.016 3.584-43.1616 23.1936-99.9936 35.1744-99.9936 2.048 0 7.168 7.168 11.6224 16.0256z" fill="#000000" p-id="3236"></path><path d="M453.5296 479.5904c-44.8 18.0224-75.2128 47.616-85.6064 83.6096-15.616 54.016 8.3968 101.2224 64.4096 127.5904 22.784 10.3936 27.1872 11.2128 79.9744 11.2128 52.7872 0 57.1904-0.8192 80.0256-11.2128 41.1648-19.2 64-47.9744 68.7616-86.3744 5.2224-46.4384-23.9616-92.416-73.984-117.248-24.3712-12.3904-30.0032-13.1584-70.8096-13.9776-35.1744-0.768-47.616 0.4096-62.7712 6.4z m101.9904 38.8096c9.984 3.2256 26.4192 13.2096 36.4032 22.016 35.2256 31.232 37.9904 68.4032 6.8096 96.768-21.6064 19.6096-40.0384 24.832-86.4256 24.832-46.3872 0-64.768-5.2224-86.3744-24.832-31.232-28.3648-28.416-65.536 6.8096-96.768 9.984-8.8064 25.6-18.432 34.816-22.016 22.3744-7.5776 65.1776-7.9872 87.9616 0z" fill="#000000" p-id="3237"></path><path d="M480.768 558.7968c-5.632 5.632-2.048 25.1904 5.12 30.0032 4.8128 3.584 8.448 11.2128 9.216 21.1968 1.2288 15.616 1.6384 16.0256 17.2032 16.0256 15.616 0 16.0256-0.4096 16.384-15.2064 0-10.0352 3.2256-17.6128 8.8064-22.8352 9.6256-9.216 11.6224-20.7872 4.0448-26.7776-5.632-4.4032-56.832-5.9904-60.8256-2.4064zM311.8592 480.4096c-18.432 9.216-28.0064 44.8-16.384 60.0064 7.168 9.216 20.7872 15.5648 33.9968 15.5648 17.2032 0 36.8128-23.1936 36.8128-43.1616 0-8.0384-2.4064-17.6128-5.2224-21.1968a40.96 40.96 0 0 0-49.152-11.264z m364.3904 0.4096c-12.8 7.168-17.5616 15.9744-17.9712 32 0 19.968 19.6096 43.1616 36.8128 43.1616 23.1936 0 38.7584-13.9776 39.168-35.1744 0-32.768-32-54.784-58.0096-39.9872z" fill="#000000" p-id="3238"></path></svg>