<?xml version="1.0" standalone="no"?><!DOCTYPE svg PUBLIC "-//W3C//DTD SVG 1.1//EN" "http://www.w3.org/Graphics/SVG/1.1/DTD/svg11.dtd"><svg t="1742661398698" class="icon" viewBox="0 0 1024 1024" version="1.1" xmlns="http://www.w3.org/2000/svg" p-id="9915" xmlns:xlink="http://www.w3.org/1999/xlink" width="200" height="200"><path d="M877.312 434.688c10.666667-29.354667 13.354667-58.709333 10.666667-88.021333-2.645333-29.354667-13.312-58.666667-26.666667-85.333334-23.978667-40.021333-58.666667-72.021333-98.645333-90.666666-42.666667-18.688-88.021333-24.021333-133.333334-13.354667-21.333333-21.333333-45.354667-39.978667-72.021333-53.333333C530.645333 90.709333 498.645333 85.333333 469.333333 85.333333a220.586667 220.586667 0 0 0-128 40.021334c-37.333333 26.624-64 64-77.354666 106.666666-32 7.978667-58.666667 21.333333-85.333334 37.333334-23.978667 18.645333-42.666667 42.666667-58.666666 66.645333-23.978667 40.021333-32 85.333333-26.666667 130.688a232.021333 232.021333 0 0 0 53.333333 122.624 200.32 200.32 0 0 0-10.666666 88.021333c2.688 29.354667 13.354667 58.666667 26.666666 85.333334 24.021333 40.021333 58.666667 72.021333 98.688 90.666666 42.666667 18.688 87.978667 24.021333 133.333334 13.354667 21.333333 21.333333 45.312 39.978667 71.978666 53.333333 26.666667 13.312 58.666667 18.645333 88.021334 18.645334a220.586667 220.586667 0 0 0 128-40.021334c37.333333-26.666667 64-64 77.312-106.666666a193.834667 193.834667 0 0 0 82.688-37.333334c23.978667-18.645333 45.312-39.978667 58.666666-66.645333 23.978667-40.021333 32-85.333333 26.666667-130.688-5.333333-45.312-21.333333-87.978667-50.688-122.624z m-320 448c-42.666667 0-74.666667-13.354667-103.978667-37.333333 0 0 2.645333-2.688 5.333334-2.688l170.666666-98.688a20.821333 20.821333 0 0 0 10.666667-10.666667c2.645333-5.333333 2.645333-7.978667 2.645333-13.312V480l72.021334 42.666667v197.333333a157.226667 157.226667 0 0 1-157.354667 162.688zM213.333333 736c-18.688-32-26.666667-69.333333-18.688-106.666667 0 0 2.688 2.688 5.333334 2.688l170.666666 98.645334a24.021333 24.021333 0 0 0 13.354667 2.688c5.333333 0 10.666667 0 13.312-2.688l208-120.021334v82.688l-173.312 101.333334A158.293333 158.293333 0 0 1 311.978667 810.666667c-42.666667-10.666667-77.312-37.333333-98.645334-74.666667zM167.978667 365.312a162.432 162.432 0 0 1 82.688-69.290667v202.666667c0 5.290667 0 10.666667 2.645333 13.312a20.821333 20.821333 0 0 0 10.666667 10.666667l208 120.021333-71.978667 42.666667-170.666667-98.688a157.738667 157.738667 0 0 1-74.666666-96c-10.666667-40.021333-8.021333-88.021333 13.312-125.354667zM757.333333 501.333333l-208-120.021333 71.978667-42.666667 170.666667 98.688c26.666667 16 48 37.333333 61.354666 64 13.312 26.666667 21.333333 56.021333 18.645334 88.021334a158.634667 158.634667 0 0 1-32 82.645333c-18.645333 24.021333-42.666667 42.666667-71.978667 53.333333v-202.666666c0-5.333333 0-10.666667-2.688-13.354667 0 0-2.645333-5.290667-7.978667-7.978667z m71.978667-106.666666s-2.645333-2.688-5.333333-2.688l-170.666667-98.645334c-5.333333-2.688-7.978667-2.688-13.312-2.688s-10.666667 0-13.354667 2.688L418.645333 413.354667V330.666667l173.354667-101.333334c26.666667-16 55.978667-21.333333 87.978667-21.333333 29.354667 0 58.666667 10.666667 85.333333 29.354667 24.021333 18.645333 45.354667 42.666667 56.021333 69.333333s13.312 58.666667 7.978667 87.978667z m-448 149.333333l-71.978667-42.666667V301.312c0-29.312 7.978667-61.312 23.978667-85.333333C349.312 189.354667 373.333333 170.666667 400 157.354667a143.573333 143.573333 0 0 1 87.978667-13.312c29.354667 2.688 58.666667 16 82.688 34.688 0 0-2.688 2.645333-5.333334 2.645333l-170.666666 98.688a20.821333 20.821333 0 0 0-10.666667 10.666667c-2.688 5.333333-2.688 7.978667-2.688 13.312v240z m37.333333-85.333333L512 405.333333l93.312 53.333334v106.666666L512 618.666667l-93.354667-53.333334v-106.666666z" p-id="9916"></path></svg>