<?xml version="1.0" standalone="no"?><!DOCTYPE svg PUBLIC "-//W3C//DTD SVG 1.1//EN" "http://www.w3.org/Graphics/SVG/1.1/DTD/svg11.dtd"><svg t="1742661661998" class="icon" viewBox="0 0 1024 1024" version="1.1" xmlns="http://www.w3.org/2000/svg" p-id="15448" xmlns:xlink="http://www.w3.org/1999/xlink" width="200" height="200"><path d="M275.541 297.515H174.208a19.499 19.499 0 0 0-16.896 9.728l-56.32 97.536a19.541 19.541 0 0 0 0 19.498l231.083 399.83h112.341l166.912-140.203-335.787-386.39z" fill="#615CED" p-id="15449"></path><path d="M208 609.536l-50.688 87.765a19.499 19.499 0 0 0 0 19.542l56.32 97.493c3.413 6.059 9.899 9.813 16.853 9.77h213.931l-236.459-214.57z m608.085-195.072l50.646-87.723a19.499 19.499 0 0 0 0-19.541l-56.32-97.493a19.541 19.541 0 0 0-16.854-9.771l-461.824 0.213-56.192 97.28 37.974 214.699 502.57-97.707z" fill="#615CED" p-id="15450"></path><path d="M579.541 199.979l-50.645-87.766A19.499 19.499 0 0 0 512 102.4H399.36a19.37 19.37 0 0 0-16.853 9.813l-51.2 88.662-55.766 96.554 304-97.45zM444.46 824.149l50.602 87.766A19.499 19.499 0 0 0 512 921.6h112.64a19.541 19.541 0 0 0 16.853-9.728l230.742-400.085-56.15-97.28-204.928-74.411-166.698 484.01z" fill="#615CED" p-id="15451"></path><path d="M748.459 726.57h101.333a19.499 19.499 0 0 0 16.896-9.77l56.32-97.493a19.37 19.37 0 0 0 0-19.542l-51.2-88.661-55.765-96.597-67.584 312.064z" fill="#615CED" p-id="15452"></path><path d="M457.003 804.267l-224.683 0.853L288 707.712l112.512-0.427-226.56-388.693 112.512-0.256 226.347 388.267-55.808 97.621z" fill="#FFFFFF" p-id="15453"></path><path d="M286.421 318.293l111.574-194.986 56.533 96.896-55.808 97.621 449.877-1.835-56.106 97.579-449.366 1.835-56.704-97.11z" fill="#FFFFFF" p-id="15454"></path><path d="M792.533 413.525L905.6 607.66l-112.17 0.469-56.62-97.152-223.317 390.528-56.49-97.323 223.061-390.144 112.512-0.512z" fill="#FFFFFF" p-id="15455"></path><path d="M512.81 706.517l167.254-292.48-336.939 1.366 169.686 291.114z" fill="#605BEC" p-id="15456"></path><path d="M512.81 706.517L286.465 318.251l11.179-19.499 226.304 388.267-11.136 19.541v-0.043z" fill="#605BEC" p-id="15457"></path><path d="M343.125 415.488l449.408-1.877 11.307 19.413-449.408 1.877-11.307-19.413z" fill="#605BEC" p-id="15458"></path><path d="M680.107 414.037L457.045 804.14l-22.442 0.085 223.061-390.101 22.443-0.086z" fill="#605BEC" p-id="15459"></path></svg>