<?xml version="1.0" standalone="no"?><!DOCTYPE svg PUBLIC "-//W3C//DTD SVG 1.1//EN" "http://www.w3.org/Graphics/SVG/1.1/DTD/svg11.dtd"><svg t="1741706193166" class="icon" viewBox="0 0 1024 1024" version="1.1" xmlns="http://www.w3.org/2000/svg" p-id="10625" xmlns:xlink="http://www.w3.org/1999/xlink" width="200" height="200"><path d="M510.854409 185.753611 510.854409 64.023152 349.338828 226.330772l161.51558 162.365948L510.854409 266.905886c133.245723 0 242.273882 109.563348 242.273882 243.460917 0 40.575114-12.107759 81.153298-28.27088 113.639177l60.59917 60.83453c28.269857-52.683896 48.430012-109.502973 48.430012-174.473707C833.886593 331.816245 688.533111 185.753611 510.854409 185.753611M511.877715 753.825674c-133.2447 0-242.273882-109.502973-242.273882-243.459894 0-40.576137 12.107759-81.092923 28.27088-113.578802l-60.59917-60.894905c-28.269857 52.804646-48.431036 109.563348-48.431036 174.473707 0 178.549535 145.352459 324.614216 323.032184 324.614216l0 121.789811 161.575956-162.366971L511.877715 632.155591 511.877715 753.825674z" fill="#34495e" p-id="10626"></path></svg>