<?xml version="1.0" standalone="no"?><!DOCTYPE svg PUBLIC "-//W3C//DTD SVG 1.1//EN" "http://www.w3.org/Graphics/SVG/1.1/DTD/svg11.dtd"><svg t="1740502375403" class="icon" viewBox="0 0 1024 1024" version="1.1" xmlns="http://www.w3.org/2000/svg" p-id="17048" xmlns:xlink="http://www.w3.org/1999/xlink" width="200" height="200"><path d="M512 512m-512 0a512 512 0 1 0 1024 0 512 512 0 1 0-1024 0Z" fill="#6582FF" p-id="17049"></path><path d="M782.1312 312.149333a14.2336 14.2336 0 0 0-13.653333-4.846933L301.3632 422.0928a37.546667 37.546667 0 0 0-17.066667 63.146667l90.077867 89.1904-18.090667 141.277866a12.765867 12.765867 0 0 0 6.621867 13.243734 13.038933 13.038933 0 0 0 15.018667-1.3312l49.4592-39.7312a13.2096 13.2096 0 1 0-16.349867-20.753067l-23.893333 18.978133 11.4688-88.746666 122.88 121.856a37.000533 37.000533 0 0 0 26.487466 11.025066 38.161067 38.161067 0 0 0 33.553067-20.48l203.093333-384.136533a15.36 15.36 0 0 0-2.491733-13.482667z m-482.577067 143.36a11.400533 11.400533 0 0 1 7.953067-7.953066l393.386667-96.699734-311.7056 201.762134-86.971734-86.528a10.8544 10.8544 0 0 1-2.525866-10.4448z m256.955734 242.346667a11.5712 11.5712 0 0 1-15.633067 4.846933 12.322133 12.322133 0 0 1-2.4576-1.7408l-129.706667-129.365333 326.724267-211.0464z" fill="#FFFFFF" p-id="17050"></path></svg>